<svg width="13" height="13" viewBox="0 0 13 13" fill="none" xmlns="http://www.w3.org/2000/svg">
<g clip-path="url(#clip0_138_9270)">
<path fill-rule="evenodd" clip-rule="evenodd" d="M0 6.72854C0 6.57618 0 6.42382 0 6.27149C0.00904019 6.26418 0.0240056 6.25835 0.0262403 6.24931C0.123041 5.86235 0.375422 5.58064 0.656277 5.31895C0.878964 5.11147 1.10548 4.90808 1.32762 4.69999C1.50074 4.53784 1.57848 4.33398 1.57547 4.09785C1.57421 4.00061 1.57672 3.90326 1.57452 3.80606C1.56673 3.46801 1.53988 3.12929 1.55339 2.79213C1.57161 2.33911 1.7349 1.95065 2.15671 1.71818C2.38373 1.59307 2.63269 1.54448 2.8889 1.54696C3.29463 1.55092 3.70022 1.56636 4.10591 1.57435C4.33726 1.57888 4.53682 1.49908 4.69667 1.3303C4.84781 1.17072 4.99855 1.01054 5.14407 0.845884C5.47284 0.474018 5.81501 0.1225 6.32228 0C6.43232 0 6.54232 0 6.65236 0C6.70247 0.014593 6.75241 0.0299308 6.8028 0.0436435C7.15628 0.139734 7.41536 0.374745 7.65772 0.631121C7.8609 0.846088 8.05681 1.06796 8.25637 1.28638C8.43738 1.48445 8.65949 1.58691 8.93073 1.57645C9.11651 1.5693 9.30232 1.56267 9.48821 1.55904C9.73321 1.55427 9.97888 1.54059 10.2232 1.55204C10.8277 1.58027 11.2471 1.89509 11.3878 2.42829C11.4304 2.58973 11.4513 2.76149 11.4516 2.92862C11.4525 3.31721 11.4342 3.7059 11.4249 4.09453C11.4192 4.33564 11.5032 4.54112 11.679 4.70662C11.8328 4.85143 11.9867 4.99638 12.1452 5.13605C12.5206 5.46681 12.8764 5.81054 13 6.32228C13 6.44925 13 6.57618 13 6.70315C12.8446 7.25785 12.4307 7.61303 12.022 7.97298C11.9016 8.07905 11.7862 8.19096 11.6704 8.30215C11.5032 8.46277 11.4209 8.66037 11.4251 8.8922C11.4287 9.09071 11.4408 9.28926 11.4402 9.48777C11.4394 9.79568 11.4548 10.1063 11.4203 10.4109C11.3611 10.9333 11.0231 11.2885 10.5102 11.4019C10.3589 11.4354 10.2009 11.4535 10.0461 11.453C9.66586 11.4516 9.2857 11.4346 8.9055 11.4249C8.66413 11.4186 8.45874 11.5034 8.29341 11.6789C8.13699 11.845 7.98239 12.0129 7.83019 12.1829C7.50231 12.5491 7.16278 12.8975 6.65236 13.0001C6.53386 13.0001 6.41535 13.0001 6.29688 13.0001C5.74679 12.8456 5.39259 12.4369 5.03542 12.0309C4.9266 11.9072 4.81199 11.7884 4.69775 11.6695C4.53692 11.5022 4.33858 11.421 4.10696 11.4251C3.90831 11.4286 3.7098 11.4374 3.51115 11.4411C3.26602 11.4457 3.02027 11.4592 2.77578 11.4478C2.20713 11.4213 1.79009 11.1346 1.63861 10.6541C1.58109 10.4716 1.552 10.2735 1.54933 10.0819C1.54381 9.68909 1.56571 9.29593 1.57475 8.90286C1.58021 8.66663 1.49993 8.46328 1.32772 8.30042C1.15877 8.14068 0.987379 7.98354 0.814938 7.82755C0.474695 7.51971 0.141494 7.20737 0.0205182 6.73951C0.0192316 6.73433 0.00707641 6.7321 0 6.72854ZM3.57907 2.38515C3.2801 2.38499 2.98072 2.37483 2.68236 2.38844C2.51077 2.39626 2.40747 2.51304 2.38546 2.68433C2.36829 2.81793 2.356 2.95357 2.35807 3.08799C2.36315 3.41777 2.38123 3.74731 2.38769 4.07709C2.39717 4.55981 2.22456 4.9696 1.87454 5.30192C1.6875 5.47951 1.4918 5.64802 1.30555 5.82642C1.17455 5.95193 1.04274 6.079 0.929481 6.22003C0.768382 6.42053 0.769297 6.58072 0.931343 6.78228C1.04203 6.91998 1.17055 7.04431 1.29854 7.16684C1.49702 7.35689 1.70711 7.53498 1.90267 7.72791C2.16596 7.98767 2.34541 8.29717 2.36758 8.67354C2.38323 8.93868 2.37087 9.20542 2.37344 9.47138C2.37622 9.75809 2.37185 10.0454 2.39013 10.3312C2.40036 10.4911 2.51304 10.5902 2.67282 10.6121C2.81038 10.6311 2.95032 10.6432 3.08897 10.6414C3.44831 10.6369 3.80761 10.6137 4.16682 10.6158C4.54278 10.6179 4.88191 10.7409 5.16178 10.9977C5.31106 11.1346 5.44778 11.2853 5.58941 11.4306C5.79283 11.6393 5.98525 11.8601 6.20154 12.0544C6.40774 12.2397 6.584 12.2431 6.79135 12.0587C7.00801 11.8662 7.19718 11.6426 7.3984 11.4325C7.50736 11.3209 7.61503 11.208 7.72551 11.0979C8.00105 10.8233 8.32707 10.6456 8.71955 10.6237C8.9677 10.6099 9.21744 10.6266 9.46647 10.6258C9.74865 10.6249 10.0314 10.6289 10.3128 10.613C10.4905 10.603 10.5942 10.4851 10.6157 10.3088C10.6319 10.1753 10.6439 10.0399 10.6418 9.90558C10.6365 9.57624 10.6177 9.24714 10.6123 8.9178C10.6047 8.44628 10.7688 8.04198 11.1099 7.71413C11.3044 7.5272 11.504 7.34555 11.7013 7.16153C11.8322 7.02474 11.9752 6.8974 12.0908 6.74879C12.2283 6.57205 12.227 6.42839 12.0908 6.25009C11.9812 6.10657 11.8519 5.97655 11.7215 5.85066C11.5148 5.65093 11.2936 5.4659 11.09 5.26312C10.8776 5.05157 10.6976 4.80749 10.665 4.50205C10.6311 4.18446 10.6346 3.86274 10.6264 3.54267C10.6189 3.25179 10.6276 2.96021 10.6101 2.67004C10.6005 2.5103 10.4889 2.41031 10.3292 2.38776C10.1917 2.36836 10.0517 2.3556 9.9131 2.35756C9.58328 2.36233 9.25374 2.38133 8.92392 2.38776C8.44652 2.39707 8.03859 2.22958 7.70837 1.88392C7.51853 1.6852 7.34084 1.47477 7.14869 1.27839C7.01336 1.14008 6.86933 1.00837 6.71734 0.888817C6.58024 0.780978 6.41877 0.779691 6.28304 0.889054C6.12641 1.01518 5.9862 1.16168 5.83885 1.29932C5.65804 1.49339 5.48079 1.69106 5.29552 1.8808C5.02865 2.15411 4.71367 2.34351 4.32426 2.36978C4.07655 2.38654 3.82746 2.38082 3.57907 2.38515Z" fill="white"/>
<path fill-rule="evenodd" clip-rule="evenodd" d="M10.1531 4.74478C10.1627 4.40305 10.1833 4.06111 10.1781 3.71962C10.1744 3.47201 10.114 3.23375 9.92209 3.05203C9.73858 2.87834 9.508 2.82244 9.2692 2.82118C8.82602 2.81878 8.38275 2.83815 7.93948 2.84343C7.59798 2.84753 7.30152 2.73034 7.06451 2.48209C6.81961 2.22558 6.58842 1.95556 6.33665 1.70612C6.1851 1.556 6.00576 1.43394 5.83887 1.29932C5.98619 1.16172 6.12639 1.01521 6.28302 0.889088C6.41876 0.779725 6.58023 0.781012 6.71732 0.888851C6.86931 1.0084 7.01335 1.14011 7.14868 1.27843C7.34083 1.4748 7.51851 1.68523 7.70836 1.88395C8.03858 2.22961 8.44651 2.39711 8.92391 2.3878C9.25372 2.3814 9.58327 2.3624 9.91308 2.35759C10.0517 2.3556 10.1917 2.36839 10.3292 2.3878C10.4889 2.41035 10.6005 2.51033 10.6101 2.67007C10.6276 2.96024 10.6189 3.25183 10.6263 3.54271C10.6345 3.86277 10.6311 4.18453 10.665 4.50208C10.6976 4.80752 10.8775 5.05161 11.09 5.26315C11.2936 5.4659 11.5147 5.65097 11.7215 5.8507C11.8519 5.97658 11.9811 6.10663 12.0908 6.25012C12.227 6.42839 12.2284 6.57208 12.0908 6.74883C11.9752 6.89746 11.8321 7.02477 11.7013 7.16159C11.4963 6.8012 11.1769 6.54767 10.8756 6.27721C10.8255 6.23215 10.7742 6.18833 10.7234 6.14395C10.7217 5.82419 10.59 5.67331 10.2896 5.64687C10.2445 5.49576 10.1993 5.34462 10.1542 5.19347C10.2322 5.04372 10.2228 4.89416 10.1531 4.74478Z" fill="#FDF9D5"/>
<path fill-rule="evenodd" clip-rule="evenodd" d="M11.7016 7.16159C11.4966 6.8012 11.1772 6.54767 10.876 6.27721C10.8258 6.23215 10.7745 6.18833 10.7237 6.14395C10.722 5.82419 10.5904 5.67331 10.2899 5.64687C10.2448 5.49576 10.1996 5.34462 10.1545 5.19351C10.2324 5.04368 10.223 4.89413 10.1534 4.74481C10.1629 4.40305 10.1836 4.06111 10.1784 3.71958C10.1746 3.47198 10.1143 3.23371 9.92234 3.052C9.73883 2.8783 9.50825 2.8224 9.26945 2.82115C8.82628 2.81875 8.383 2.83811 7.93973 2.84339C7.59823 2.84749 7.30177 2.73031 7.06476 2.48206C6.81986 2.22555 6.58868 1.95553 6.33691 1.70609C6.18536 1.55596 6.00601 1.4339 5.83912 1.29928C5.65828 1.49339 5.48107 1.69106 5.29579 1.8808C5.02892 2.15411 4.71394 2.34351 4.32453 2.36978C4.07692 2.38651 3.82783 2.38079 3.57941 2.38512C3.28044 2.38495 2.98106 2.37479 2.6827 2.38841C2.51111 2.39623 2.40781 2.513 2.3858 2.68429C2.36863 2.8179 2.35634 2.95354 2.35841 3.08795C2.36349 3.41773 2.38157 3.74728 2.38803 4.07706C2.39751 4.55978 2.2249 4.96957 1.87488 5.30189C1.68784 5.47947 1.49214 5.64799 1.30589 5.82639C1.17489 5.9519 1.04308 6.07897 0.929821 6.21999C0.768722 6.4205 0.769637 6.58068 0.931683 6.78224C1.04237 6.91995 1.17089 7.04427 1.29888 7.16681C1.49736 7.35685 1.70745 7.53495 1.90301 7.72788C2.1663 7.98764 2.34575 8.29714 2.36792 8.67351C2.38356 8.93865 2.37121 9.20539 2.37378 9.47135C2.37656 9.75806 2.37219 10.0454 2.39047 10.3312C2.4007 10.491 2.51338 10.5901 2.67316 10.6121C2.81072 10.631 2.95066 10.6431 3.08931 10.6414C3.44865 10.6369 3.80795 10.6137 4.16716 10.6157C4.54312 10.6178 4.88225 10.7409 5.16212 10.9976C5.3114 11.1346 5.44812 11.2853 5.58975 11.4306C5.79317 11.6392 5.98559 11.8601 6.20188 12.0544C6.40808 12.2396 6.58434 12.243 6.79169 12.0587C7.00835 11.8661 7.19752 11.6425 7.39867 11.4326C7.5077 11.3209 7.61537 11.2079 7.72584 11.0979C8.00138 10.8233 8.32741 10.6456 8.71989 10.6237C8.96804 10.6099 9.21778 10.6266 9.46681 10.6257C9.74899 10.6249 10.0317 10.6289 10.3132 10.6129C10.4909 10.6029 10.5945 10.4851 10.616 10.3088C10.6322 10.1752 10.6442 10.0399 10.6421 9.90555C10.6369 9.57621 10.618 9.2471 10.6126 8.91776C10.605 8.44625 10.7691 8.04194 11.1103 7.71409C11.3047 7.52723 11.5043 7.34558 11.7016 7.16159Z" fill="#FFA500"/>
<path d="M4.21168 8.89754L3.83413 9.13684L2.68739 7.32766L3.72374 6.67077L3.92289 6.98497L3.26409 7.40255L3.55961 7.86879L4.1728 7.48012L4.37196 7.79432L3.75876 8.18299L4.21168 8.89754ZM4.60509 6.11213C4.76895 6.00827 4.91694 5.94289 5.04906 5.91597C5.18011 5.88737 5.29751 5.89702 5.40127 5.94491C5.50396 5.99111 5.59386 6.07502 5.67095 6.19665C5.72341 6.27942 5.75341 6.36223 5.76093 6.44508C5.76907 6.52516 5.76087 6.60376 5.73634 6.68088C5.71243 6.75523 5.67948 6.82466 5.63749 6.88916L6.6691 7.33992L6.24341 7.60974L5.37258 7.18849L5.16734 7.31858L5.6074 8.01286L5.22479 8.25538L4.07805 6.4462L4.60509 6.11213ZM4.77637 6.444L4.65982 6.51788L4.96979 7.00692L5.09395 6.92822C5.22064 6.84792 5.29763 6.76952 5.32492 6.69302C5.3539 6.61546 5.34215 6.53529 5.28969 6.45252C5.25328 6.39508 5.21086 6.35804 5.16242 6.34138C5.1146 6.32197 5.05884 6.32179 4.99514 6.34085C4.93207 6.35715 4.85915 6.39154 4.77637 6.444ZM7.93896 6.53502L6.89754 7.19512L5.7508 5.38593L6.79222 4.72584L6.99137 5.04004L6.33257 5.45762L6.58472 5.85543L7.19792 5.46676L7.39707 5.78096L6.78388 6.16963L7.07939 6.63587L7.7382 6.21829L7.93896 6.53502ZM9.35684 5.6363L8.31542 6.2964L7.16868 4.48722L8.2101 3.82712L8.40925 4.14132L7.75045 4.5589L8.0026 4.95672L8.6158 4.56805L8.81495 4.88225L8.20176 5.27092L8.49727 5.73715L9.15608 5.31957L9.35684 5.6363Z" fill="white"/>
</g>
<defs>
<clipPath id="clip0_138_9270">
<rect width="13" height="13" fill="white"/>
</clipPath>
</defs>
</svg>
