<svg width="26" height="30" viewBox="0 0 26 30" fill="none" xmlns="http://www.w3.org/2000/svg">
<path fill-rule="evenodd" clip-rule="evenodd" d="M21.2857 26.2026C21.1588 25.8677 21.0368 25.5309 20.9039 25.1985C20.5657 24.353 20.2226 23.5093 19.8704 22.6378C19.3108 22.8493 18.6474 22.8297 18.4215 23.5379C18.2026 23.9524 17.9837 24.3669 17.7649 24.7813C17.5296 25.2221 17.2964 25.6648 16.7512 25.796C16.3268 25.7286 15.9025 25.6612 15.4717 25.5929C15.8862 26.8282 16.3118 28.0966 16.7598 29.4322C17.31 28.731 17.8139 28.089 18.3177 27.4469C18.354 27.4114 18.4014 27.3821 18.4249 27.3395C18.6081 27.0086 18.8661 26.9357 19.2273 27.0404C19.5293 27.1279 19.8503 27.1494 20.1629 27.2002C20.6978 27.3125 21.2326 27.4249 21.8589 27.5563C21.6418 27.0437 21.4638 26.6231 21.2857 26.2026Z" fill="url(#paint0_linear_73_4222)"/>
<path fill-rule="evenodd" clip-rule="evenodd" d="M9.75712 24.777C9.50667 24.304 9.26191 23.8277 8.99974 23.3613C8.92173 23.2226 8.81681 23.0538 8.68333 22.9995C8.20331 22.8044 7.7058 22.6523 7.19928 22.4785C7.04838 22.8765 6.91407 23.231 6.77969 23.5855C6.53625 24.1905 6.29282 24.7956 6.04938 25.4006C5.76418 26.0912 5.47897 26.7817 5.15918 27.5561C6.08777 27.3722 6.90945 27.2094 7.73105 27.0466C8.1244 26.9183 8.39284 27.0344 8.64198 27.3843C9.07767 27.9962 9.57205 28.5663 10.0434 29.1528C10.1032 29.2271 10.1719 29.2941 10.2738 29.4051C10.4839 28.7555 10.6761 28.1614 10.8682 27.5673C11.0709 26.9801 11.2735 26.3929 11.4819 25.7892C10.4123 25.8167 10.2579 25.7228 9.75712 24.777Z" fill="url(#paint1_linear_73_4222)"/>
<path fill-rule="evenodd" clip-rule="evenodd" d="M4.61339 8.06029C5.31753 7.73414 6.02158 7.40791 6.79952 7.04751C6.07326 6.89603 5.42451 6.75322 4.77254 6.62783C4.46423 6.56856 4.29987 6.41519 4.28807 6.09151C4.27816 5.82422 4.24349 5.55759 4.21501 5.29129C4.17225 4.89217 4.12528 4.49354 4.07146 4.01848C3.70189 4.66087 3.37839 5.23425 3.04175 5.79995C2.96531 5.9284 2.8438 6.02993 2.74309 6.14393C1.96995 6.0017 1.19688 5.85955 0.361328 5.70593C0.844401 6.23977 1.28678 6.73787 1.74046 7.22548C1.92083 7.41939 1.99463 7.61808 1.87485 7.86638C1.52468 8.45306 1.17459 9.03973 0.824424 9.6264C0.842337 9.65182 0.860333 9.67725 0.878246 9.70267C1.52807 9.40451 2.17797 9.10634 2.82771 8.80818C3.07172 8.76261 3.23541 8.88297 3.38804 9.05673C3.82803 9.55788 4.27643 10.0515 4.76949 10.6015C4.71542 10.0987 4.6545 9.6737 4.62825 9.24651C4.60398 8.85226 4.61686 8.4557 4.61339 8.06029Z" fill="#FF0000"/>
<path fill-rule="evenodd" clip-rule="evenodd" d="M24.3308 7.819C24.7831 7.1885 25.2354 6.55791 25.7351 5.86129C25.0284 6.08689 24.3935 6.28204 23.7642 6.49377C23.4667 6.5939 23.2481 6.54132 23.0785 6.26544C22.9383 6.03769 22.7769 5.82265 22.6209 5.60489C22.3872 5.2785 22.1501 4.95466 21.8694 4.56767C21.8639 5.30879 21.8646 5.9672 21.8502 6.62527C21.8469 6.77468 21.7911 6.92286 21.7595 7.07169C21.0166 7.3285 20.2737 7.58539 19.4707 7.86292C20.154 8.08976 20.7843 8.30562 21.4192 8.50671C21.6716 8.58662 21.8336 8.72332 21.8516 8.99837C21.8357 9.68137 21.8197 10.3645 21.8037 11.0475C21.8317 11.0608 21.86 11.074 21.888 11.0873C22.3069 10.5078 22.7257 9.92844 23.1446 9.34904C23.3345 9.1893 23.5364 9.21341 23.7547 9.2896C24.3844 9.50918 25.0177 9.71811 25.7176 9.9542C25.423 9.54319 25.1608 9.20317 24.9276 8.84425C24.7124 8.51307 24.5284 8.16158 24.3308 7.819Z" fill="#FF0000"/>
<path fill-rule="evenodd" clip-rule="evenodd" d="M14.6419 4.05571C15.2723 3.60318 15.9025 3.15057 16.599 2.65058C15.8571 2.63811 15.1932 2.6197 14.5292 2.61888C14.2152 2.61855 14.025 2.49869 13.9527 2.18302C13.8927 1.92234 13.8086 1.66701 13.7306 1.41078C13.6138 1.02677 13.4928 0.643992 13.3507 0.1875C13.1083 0.88784 12.8982 1.51174 12.6738 2.1306C12.6229 2.2711 12.5225 2.39369 12.4451 2.52453C11.659 2.53006 10.873 2.53559 10.0234 2.54153C10.5981 2.97524 11.1261 3.38146 11.6633 3.77513C11.8769 3.93164 11.9867 4.11308 11.9157 4.37939C11.6819 5.02136 11.4481 5.66334 11.2144 6.30532C11.2367 6.32687 11.2592 6.34849 11.2816 6.37012C11.8639 5.95523 12.4461 5.54034 13.0284 5.12546C13.2596 5.0349 13.443 5.1224 13.6254 5.26447C14.1517 5.67407 14.6848 6.07476 15.2724 6.52242C15.1248 6.03869 14.9852 5.63263 14.8792 5.21799C14.7813 4.83546 14.7195 4.44353 14.6419 4.05571Z" fill="#FF0000"/>
<path fill-rule="evenodd" clip-rule="evenodd" d="M21.981 15.1402C21.4641 14.7332 20.9472 14.3261 20.4233 13.928C20.1029 13.6847 19.908 13.3771 19.8591 12.9763C19.8354 12.7828 19.803 12.5903 19.7745 12.3974C19.7136 11.9305 19.6611 11.4624 19.5892 10.9973C19.5159 10.524 19.2401 10.2991 18.7623 10.3122C18.4242 10.3214 18.0866 10.3466 17.7488 10.3647C17.3568 10.3802 16.9648 10.3956 16.5727 10.4112C16.2135 10.3541 15.9246 10.1774 15.662 9.92684C15.237 9.52145 14.7972 9.13091 14.3518 8.74797C14.2258 8.63959 14.0585 8.57941 13.9101 8.49711C13.6264 8.47111 13.353 8.47598 13.1672 8.74426C12.8925 8.99793 12.6179 9.25168 12.3431 9.50535C11.978 9.788 11.6127 10.0706 11.2473 10.3531C10.5615 10.3496 9.8757 10.3454 9.1898 10.3429C8.96709 10.3421 8.74437 10.3459 8.52157 10.3477C8.17033 10.3764 7.99211 10.6001 7.93952 10.9168C7.85458 11.4284 7.79754 11.9447 7.72878 12.459C7.63699 13.0341 7.58308 13.6266 7.03026 13.9915C6.65697 14.2836 6.28361 14.5756 5.91024 14.8677C5.63387 15.0718 5.28279 15.2084 5.23145 15.6165C5.26207 15.7912 5.24696 15.993 5.33116 16.1362C5.69743 16.7585 6.09259 17.3639 6.47718 17.9753C6.72912 18.3953 6.60868 18.834 6.54239 19.27C6.41387 19.8707 6.26355 20.4679 6.16515 21.0734C6.10728 21.4295 6.31902 21.6787 6.69552 21.803C7.33007 22.0126 7.96412 22.2243 8.60288 22.4203C8.99226 22.5397 9.26096 22.7762 9.44537 23.1362C9.75022 23.7314 10.0658 24.3212 10.3872 24.9077C10.5979 25.2919 10.9205 25.4099 11.3249 25.2564C11.6126 25.1471 11.8927 25.0174 12.1762 24.8969C12.4896 24.7634 12.8029 24.6299 13.1163 24.4964C13.3989 24.455 13.6814 24.4136 13.9641 24.3721C14.6041 24.6218 15.2442 24.8716 15.8844 25.1213C16.0056 25.1735 16.1248 25.2311 16.2483 25.277C16.5268 25.3806 16.7889 25.3264 16.9712 25.1032C17.1219 24.9186 17.2153 24.6873 17.3341 24.4767C17.62 23.945 17.9061 23.4133 18.1921 22.8816C18.4568 22.7212 18.7081 22.5302 18.9894 22.4078C19.3689 22.2426 19.7714 22.13 20.164 21.9947C20.3588 21.9375 20.5556 21.8864 20.748 21.8218C21.2724 21.6462 21.4352 21.3566 21.3172 20.8137C21.2636 20.5668 21.2025 20.3217 21.1449 20.0757C21.093 19.816 21.0438 19.5557 20.9887 19.2967C20.8993 18.8768 20.7828 18.4579 20.9873 18.038C21.1818 17.7263 21.3763 17.4146 21.5709 17.103C21.6837 16.9188 21.7963 16.7344 21.9091 16.5502C22.0104 16.384 22.1117 16.218 22.213 16.0518C22.384 15.6761 22.3184 15.4058 21.981 15.1402Z" fill="url(#paint2_linear_73_4222)"/>
<path d="M12.3651 17.2064L13.1902 18.0315L14.8405 16.3812M9.88965 17.2064C9.88965 17.694 9.98569 18.1769 10.1723 18.6274C10.3589 19.0779 10.6324 19.4872 10.9772 19.832C11.322 20.1768 11.7313 20.4503 12.1818 20.6369C12.6323 20.8235 13.1152 20.9196 13.6028 20.9196C14.0904 20.9196 14.5733 20.8235 15.0238 20.6369C15.4743 20.4503 15.8836 20.1768 16.2284 19.832C16.5732 19.4872 16.8467 19.0779 17.0333 18.6274C17.2199 18.1769 17.316 17.694 17.316 17.2064C17.316 16.7188 17.2199 16.2359 17.0333 15.7854C16.8467 15.3349 16.5732 14.9256 16.2284 14.5808C15.8836 14.236 15.4743 13.9625 15.0238 13.7759C14.5733 13.5893 14.0904 13.4932 13.6028 13.4932C13.1152 13.4932 12.6323 13.5893 12.1818 13.7759C11.7313 13.9625 11.322 14.236 10.9772 14.5808C10.6324 14.9256 10.3589 15.3349 10.1723 15.7854C9.98569 16.2359 9.88965 16.7188 9.88965 17.2064Z" stroke="white" stroke-width="0.618861" stroke-linecap="round" stroke-linejoin="round"/>
<defs>
<linearGradient id="paint0_linear_73_4222" x1="18.6653" y1="22.6378" x2="18.6653" y2="29.4322" gradientUnits="userSpaceOnUse">
<stop stop-color="#FFC581"/>
<stop offset="1" stop-color="#E5C105"/>
</linearGradient>
<linearGradient id="paint1_linear_73_4222" x1="8.32053" y1="22.4785" x2="8.32053" y2="29.4051" gradientUnits="userSpaceOnUse">
<stop stop-color="#FFC581"/>
<stop offset="1" stop-color="#E5C105"/>
</linearGradient>
<linearGradient id="paint2_linear_73_4222" x1="13.7678" y1="8.48689" x2="13.7678" y2="25.3276" gradientUnits="userSpaceOnUse">
<stop stop-color="#FFC581"/>
<stop offset="1" stop-color="#D0B009"/>
</linearGradient>
</defs>
</svg>
