<svg width="27" height="34" viewBox="0 0 27 34" fill="none" xmlns="http://www.w3.org/2000/svg">
<g clip-path="url(#clip0_73_9107)">
<path fill-rule="evenodd" clip-rule="evenodd" d="M14.0229 0C14.2179 0.0497826 14.4144 0.094711 14.6078 0.150174C15.7026 0.464672 16.502 1.12579 16.9472 2.18331C17.0284 2.37624 17.1246 2.44482 17.3346 2.44007C17.9873 2.42551 18.6405 2.4283 19.2932 2.43852C19.5004 2.44172 19.7135 2.46569 19.9121 2.52239C20.2223 2.61101 20.3801 2.83441 20.3771 3.16595C20.3733 3.58414 20.3762 4.00234 20.3762 4.45131C21.3686 4.45131 22.3395 4.45307 23.3106 4.45069C23.9298 4.44914 24.5236 4.56627 25.0598 4.87901C26.2225 5.55727 26.8408 6.57193 26.8416 7.92649C26.8461 15.5071 26.8204 23.0878 26.8597 30.6682C26.8699 32.6288 25.3322 33.8952 23.651 33.9924C23.5406 33.9988 23.4297 33.9983 23.3192 33.9983C16.7678 33.9986 10.2164 33.9973 3.66503 34.0001C2.86975 34.0005 2.132 33.8159 1.47656 33.3587C0.613005 32.7563 0.139967 31.9374 0.139863 30.8681C0.139863 28.5552 0.13976 26.2424 0.13976 23.9293C0.13976 18.6174 0.13945 13.3055 0.139863 7.99352C0.14007 5.95068 1.62518 4.46081 3.67154 4.45203C4.53468 4.44842 5.39792 4.45141 6.26117 4.45141C6.369 4.45141 6.47693 4.45141 6.60717 4.45141C6.60717 4.03652 6.60603 3.65179 6.60738 3.26696C6.60934 2.72679 6.83408 2.46662 7.38148 2.44885C8.12213 2.42499 8.86433 2.44565 9.60518 2.42603C9.71332 2.42324 9.87196 2.32915 9.91689 2.23454C10.4828 1.04378 11.3899 0.300761 12.6951 0.0587683C12.7199 0.0541205 12.7393 0.0202436 12.7612 0.000103283C12.8497 0.000103283 12.9382 0.000103283 13.0269 0.000103283C13.2925 0.000103283 13.5582 0.000103283 13.8237 0.000103283C13.8901 0 13.9565 0 14.0229 0ZM6.60727 6.11665C6.55501 6.09321 6.53508 6.07648 6.51514 6.07637C5.57464 6.074 4.63414 6.06811 3.69364 6.07276C2.50175 6.07865 1.74954 6.83778 1.74943 8.02564C1.74923 12.1198 1.74933 16.2138 1.74933 20.3078C1.74933 23.7933 1.75315 27.2787 1.74613 30.7641C1.74479 31.472 2.06992 31.9565 2.70976 32.1974C3.0318 32.3187 3.39722 32.3748 3.74312 32.3753C10.2382 32.3856 16.7334 32.3829 23.2285 32.3823C23.3611 32.3823 23.4946 32.3824 23.626 32.3677C24.7201 32.2462 25.2336 31.6724 25.2336 30.5761C25.2336 23.063 25.2337 15.5499 25.2336 8.0368C25.2336 6.82838 24.4832 6.07689 23.267 6.07214C22.404 6.06873 21.5409 6.0709 20.6778 6.07235C20.5833 6.07245 20.4889 6.08422 20.4052 6.09001C20.3903 6.14124 20.3788 6.1621 20.3788 6.18317C20.3771 6.73625 20.3767 7.28964 20.3761 7.84283C20.3752 8.5749 20.0561 8.90221 19.3325 8.90242C15.4267 8.90366 11.5207 8.90355 7.6147 8.90242C6.91836 8.90221 6.60882 8.58761 6.60748 7.88662C6.60624 7.29181 6.60727 6.6968 6.60727 6.11665ZM18.7408 4.05057C18.0313 4.05057 17.3476 4.05119 16.6639 4.05036C16.0527 4.04975 15.7765 3.83822 15.6181 3.25209C15.3434 2.23557 14.4915 1.53614 13.495 1.50887C12.503 1.48181 11.5747 2.17401 11.266 3.1708C11.0365 3.91207 10.8507 4.05067 10.0866 4.05067C9.47163 4.05067 8.85668 4.05067 8.25433 4.05067C8.25433 5.15188 8.25433 6.20951 8.25433 7.26806C11.76 7.26806 15.2469 7.26806 18.7408 7.26806C18.7408 6.1937 18.7408 5.14362 18.7408 4.05057Z" fill="#FF0000"/>
<path fill-rule="evenodd" clip-rule="evenodd" d="M17.3303 14.9795C15.8703 14.9795 14.4103 14.9798 12.9502 14.9788C12.8288 14.9787 12.7061 14.979 12.5863 14.9625C12.1659 14.9049 11.8841 14.5876 11.8799 14.1771C11.8756 13.7573 12.1713 13.4181 12.5982 13.3627C12.7071 13.3484 12.819 13.3548 12.9295 13.3548C15.905 13.3544 18.8804 13.3538 21.8557 13.3552C22.4264 13.3554 22.7888 13.669 22.7937 14.1567C22.7976 14.5578 22.5351 14.8839 22.1398 14.9535C22.0102 14.9763 21.8758 14.9783 21.7436 14.9784C20.2725 14.9801 18.8015 14.9795 17.3303 14.9795Z" fill="#FF0000"/>
<path fill-rule="evenodd" clip-rule="evenodd" d="M17.3625 26.3033C18.8668 26.3033 20.3711 26.3016 21.8754 26.3043C22.3251 26.305 22.6088 26.4845 22.7435 26.8361C22.9101 27.2711 22.6652 27.767 22.2173 27.8884C22.1117 27.9171 21.9991 27.9326 21.8897 27.9327C18.8589 27.9349 15.8282 27.9369 12.7974 27.9324C12.2654 27.9315 11.9266 27.6478 11.8862 27.2073C11.8375 26.6771 12.1971 26.3072 12.7833 26.3048C13.9889 26.2997 15.1946 26.3032 16.4002 26.3032C16.7209 26.3033 17.0417 26.3033 17.3625 26.3033Z" fill="#FF0000"/>
<path fill-rule="evenodd" clip-rule="evenodd" d="M17.3457 19.8381C18.8496 19.8381 20.3534 19.8402 21.8573 19.8363C22.1461 19.8355 22.4097 19.8844 22.6023 20.1193C22.7998 20.36 22.8512 20.6318 22.7408 20.9258C22.6303 21.2202 22.4105 21.3878 22.1049 21.4411C22.0188 21.4562 21.9285 21.4502 21.8401 21.4502C18.8324 21.4505 15.8247 21.4509 12.8169 21.45C12.3246 21.4498 11.9933 21.229 11.9017 20.8489C11.7742 20.3191 12.1328 19.851 12.7017 19.8432C13.6525 19.8301 14.6035 19.8385 15.5545 19.8381C16.1514 19.8379 16.7486 19.838 17.3457 19.8381Z" fill="#FF0000"/>
<path fill-rule="evenodd" clip-rule="evenodd" d="M6.68301 20.4918C7.50432 19.7084 8.33224 18.9129 9.16708 18.125C9.54118 17.7719 9.98075 17.7522 10.3276 18.0526C10.6949 18.3707 10.7454 18.8551 10.3976 19.1921C9.33337 20.2234 8.25798 21.2434 7.1734 22.2533C6.83432 22.5691 6.4058 22.5389 6.07343 22.2068C5.52582 21.6596 4.98524 21.1051 4.45209 20.5438C4.10795 20.1816 4.10681 19.6634 4.42781 19.3513C4.75677 19.0315 5.23043 19.0655 5.60773 19.4399C5.78042 19.6112 5.9434 19.7924 6.11712 19.9628C6.29074 20.1331 6.47211 20.2954 6.68301 20.4918Z" fill="#FF0000"/>
<path fill-rule="evenodd" clip-rule="evenodd" d="M6.68104 26.968C7.5132 26.1754 8.3435 25.3808 9.17844 24.591C9.53456 24.254 9.93561 24.2242 10.2855 24.4935C10.6922 24.8062 10.7584 25.3198 10.3905 25.6763C9.32634 26.7072 8.24951 27.7255 7.16482 28.735C6.83432 29.0426 6.41364 29.0163 6.0946 28.6981C5.54647 28.1515 5.00434 27.5986 4.47005 27.0386C4.10815 26.6592 4.10164 26.1408 4.4338 25.822C4.75191 25.5166 5.24799 25.5571 5.61537 25.9227C5.78775 26.0942 5.95 26.2761 6.12342 26.4465C6.29621 26.6163 6.47696 26.778 6.68104 26.968Z" fill="#FF0000"/>
<path fill-rule="evenodd" clip-rule="evenodd" d="M6.71446 13.9843C7.50055 13.2359 8.33002 12.4429 9.16352 11.6542C9.54412 11.2941 9.9651 11.2684 10.3216 11.5709C10.6903 11.8838 10.7486 12.3747 10.4029 12.7102C9.33146 13.7498 8.24698 14.776 7.15321 15.7921C6.82404 16.0979 6.40895 16.0618 6.08433 15.7373C5.53682 15.19 4.99376 14.6378 4.46071 14.0767C4.1018 13.6989 4.10459 13.1744 4.44377 12.8618C4.76746 12.5633 5.25093 12.6178 5.6273 12.9793C5.97681 13.315 6.33851 13.6378 6.71446 13.9843Z" fill="#FF0000"/>
</g>
<defs>
<clipPath id="clip0_73_9107">
<rect width="26.7202" height="34" fill="white" transform="translate(0.139648)"/>
</clipPath>
</defs>
</svg>
