<svg width="41" height="30" viewBox="0 0 41 30" fill="none" xmlns="http://www.w3.org/2000/svg">
<g clip-path="url(#clip0_73_9079)">
<path fill-rule="evenodd" clip-rule="evenodd" d="M0.5 23.434C0.5 15.8819 0.5 8.32979 0.5 0.777705C0.577926 0.774371 0.655749 0.76812 0.733675 0.76812C9.49331 0.767704 18.2529 0.767599 27.0126 0.768641C27.1237 0.768641 27.2349 0.783851 27.3771 0.794165C27.3771 1.40195 27.3771 1.97983 27.3771 2.57439C28.893 2.57439 30.3752 2.5721 31.8574 2.57512C33.041 2.57741 34.1428 2.88068 35.1535 3.49982C35.9875 4.01071 36.7769 4.62756 37.1639 5.5208C38.2974 8.13779 39.3425 10.7931 40.422 13.4336C40.4229 16.5411 40.4228 19.6487 40.4279 22.7562C40.4281 22.904 40.4748 23.0518 40.4999 23.1995C40.4999 23.2517 40.4999 23.3036 40.4999 23.3557C39.6602 23.3557 38.8205 23.3557 37.9778 23.3557C38.3383 26.5951 36.2524 28.5009 34.3877 29.0284C31.8117 29.7573 29.3014 28.4532 28.2737 26.1008C28.2363 26.0974 28.1975 26.091 28.1588 26.091C23.7328 26.0905 19.3068 26.0932 14.881 26.0832C14.6345 26.0825 14.5579 26.192 14.4653 26.3807C13.3446 28.6643 10.7501 29.7704 8.35088 28.9756C6.88642 28.4905 5.87098 27.4982 5.22903 26.0758C4.23713 26.0758 3.24003 26.0758 2.2473 26.0758C2.2473 25.4944 2.2473 24.9427 2.2473 24.3564C3.13648 24.3564 4.00096 24.3564 4.86263 24.3564C4.87701 24.0364 4.88972 23.7515 4.90399 23.4338C3.43735 23.434 1.96873 23.434 0.5 23.434ZM25.6132 21.7079C25.6132 15.2787 25.6132 8.89445 25.6132 2.50928C17.8039 2.50928 10.0162 2.50928 2.24063 2.50928C2.24063 8.92101 2.24063 15.3053 2.24063 21.7079C3.2792 21.7079 4.29297 21.7157 5.30612 21.6974C5.4252 21.6952 5.5798 21.5755 5.65367 21.4666C7.7757 18.3418 12.0834 18.3351 14.1733 21.4662C14.3001 21.6561 14.429 21.7127 14.6441 21.712C16.6746 21.705 18.7053 21.7078 20.736 21.7078C22.3497 21.7079 23.9634 21.7079 25.6132 21.7079ZM36.3274 19.9007C36.3274 19.3287 36.3274 18.7767 36.3274 18.1915C37.1471 18.1915 37.9481 18.1915 38.777 18.1915C38.777 17.98 38.7521 17.796 38.7823 17.6217C38.8439 17.2671 38.6724 17.1365 38.3616 17.0214C36.6586 16.3908 34.9733 15.7124 33.2641 15.0998C32.3478 14.7714 31.6267 14.2154 31.0103 13.4915C29.7301 11.988 29.2307 10.2487 29.3505 8.28437C29.4317 6.95119 30.2386 6.09764 31.5749 6.09358C32.7596 6.08993 33.9443 6.09347 35.1289 6.09181C35.2359 6.0917 35.343 6.07743 35.4917 6.0667C34.5481 4.93124 33.3878 4.33471 31.9704 4.30575C30.4869 4.27554 29.0023 4.2971 27.5183 4.29783C27.4702 4.29783 27.4221 4.31679 27.3413 4.33388C27.3413 10.702 27.3413 17.0605 27.3413 23.4319C25.2486 23.4319 23.192 23.4319 21.1354 23.4319C19.0708 23.4319 17.0059 23.4319 14.9376 23.4319C14.9545 23.7758 14.9689 24.0698 14.9831 24.3578C19.3104 24.3578 23.6022 24.3578 27.9244 24.3578C27.9244 24.2148 27.9211 24.0877 27.9248 23.9609C27.9998 21.3689 30.2254 19.1724 32.82 19.1349C34.6487 19.1083 36.0814 19.8638 37.1502 21.3383C37.2329 21.4525 37.3627 21.6004 37.4804 21.6096C37.9026 21.6424 38.329 21.6224 38.7498 21.6224C38.7498 21.0233 38.7498 20.4716 38.7498 19.9007C37.9311 19.9007 37.14 19.9007 36.3274 19.9007ZM38.7424 15.3198C38.8541 14.3931 38.7997 13.9616 38.4783 13.1781C37.7455 11.3918 37.0124 9.60579 36.275 7.809C36.1709 7.809 36.0812 7.809 35.9914 7.809C34.4956 7.809 32.9999 7.80994 31.5041 7.80838C31.2531 7.80817 31.1197 7.92162 31.0961 8.17551C30.9506 9.74424 31.2838 11.1665 32.3454 12.3795C32.7718 12.8666 33.2418 13.2655 33.8722 13.4772C34.5717 13.712 35.253 14.0007 35.9435 14.2628C36.8735 14.6159 37.8048 14.9659 38.7424 15.3198ZM13.2415 24.1877C13.2444 22.351 11.7627 20.859 9.93285 20.856C8.10512 20.8531 6.60295 22.3439 6.59712 24.1667C6.59128 25.9868 8.09241 27.4958 9.91211 27.4991C11.7443 27.5025 13.2386 26.0163 13.2415 24.1877ZM36.2903 24.1728C36.2879 22.3391 34.7982 20.8526 32.9668 20.856C31.1415 20.8594 29.644 22.3588 29.6451 24.1816C29.6462 25.9994 31.1536 27.5008 32.9759 27.4992C34.8045 27.4975 36.2927 26.004 36.2903 24.1728Z" fill="#FFA500"/>
<path fill-rule="evenodd" clip-rule="evenodd" d="M40.4219 13.4337C40.4478 13.4337 40.4739 13.4339 40.4998 13.434C40.4998 16.6893 40.4998 19.9444 40.4998 23.1996C40.4747 23.052 40.428 22.9042 40.4278 22.7563C40.4227 19.6489 40.4228 16.5413 40.4219 13.4337Z" fill="#FFA500"/>
<path fill-rule="evenodd" clip-rule="evenodd" d="M11.1459 24.209C11.139 24.8823 10.6001 25.4176 9.92669 25.4197C9.2415 25.4219 8.69133 24.8651 8.69831 24.1765C8.70508 23.5114 9.25473 22.9662 9.91961 22.9651C10.6051 22.9639 11.1528 23.5195 11.1459 24.209Z" fill="#FFA500"/>
<path fill-rule="evenodd" clip-rule="evenodd" d="M34.1955 24.2019C34.1916 24.8753 33.6554 25.4135 32.9824 25.4194C32.2977 25.4255 31.7419 24.8701 31.7461 24.1838C31.7502 23.5176 32.2966 22.9696 32.9613 22.9652C33.6476 22.9608 34.1995 23.5137 34.1955 24.2019Z" fill="#FFA500"/>
</g>
<defs>
<clipPath id="clip0_73_9079">
<rect width="40" height="28.4643" fill="white" transform="translate(0.5 0.767822)"/>
</clipPath>
</defs>
</svg>
