<svg width="41" height="30" viewBox="0 0 41 30" fill="none" xmlns="http://www.w3.org/2000/svg">
<g clip-path="url(#clip0_73_9129)">
<path fill-rule="evenodd" clip-rule="evenodd" d="M40.4999 22.2679C40.354 22.5784 40.2361 22.9063 40.0567 23.1963C39.6599 23.8379 39.0776 24.2686 38.3696 24.5147C38.1369 24.5955 38.0279 24.6929 37.9777 24.9556C37.5036 27.4326 35.2366 29.2616 32.7318 29.2117C30.1575 29.1606 28.0045 27.305 27.5933 24.7831C26.9514 20.8471 30.704 17.6321 34.4775 18.919C36.2584 19.5264 37.3954 20.7991 37.9202 22.6107C37.9413 22.6837 37.9633 22.7565 37.9938 22.8596C38.5024 22.6318 38.8218 22.2706 38.8252 21.735C38.8378 19.7826 38.821 17.83 38.8142 15.8775C38.8142 15.8529 38.7992 15.8284 38.7771 15.7607C38.6387 15.7607 38.4861 15.7607 38.3333 15.7607C31.7979 15.7607 25.2624 15.74 18.727 15.7732C16.7155 15.7833 15.6525 14.6676 15.0326 13.1044C14.8519 12.6486 15.0406 12.2105 15.4523 12.0246C15.8482 11.8456 16.2642 11.9895 16.5136 12.4097C16.6524 12.6435 16.7582 12.8968 16.892 13.1341C17.2362 13.7452 17.7282 14.0944 18.4646 14.0937C25.0652 14.0868 31.6657 14.0899 38.2662 14.0892C38.3285 14.0892 38.3907 14.0787 38.5823 14.0612C38.221 13.6084 37.9553 13.1729 37.5947 12.8394C34.5089 9.98581 31.4321 7.12331 28.0941 4.55546C26.1889 3.08974 24.0704 2.42358 21.6805 2.4367C16.7076 2.46398 11.7343 2.44061 6.76107 2.45396C6.39346 2.45488 6.00502 2.53119 5.66342 2.66631C5.0975 2.89028 4.78756 3.33109 4.80194 3.9717C4.81449 4.53129 4.81092 5.09145 4.80252 5.65115C4.794 6.21937 4.45724 6.58042 3.96337 6.57029C3.4885 6.56062 3.1637 6.20187 3.15507 5.65564C3.14621 5.09594 3.16566 4.53578 3.15058 3.97631C3.10408 2.24046 4.45517 1.08331 5.95162 0.857843C6.31002 0.803864 6.67763 0.793045 7.04109 0.792815C11.78 0.788672 16.5189 0.77371 21.2575 0.802023C22.3845 0.808813 23.5204 0.899162 24.6343 1.06904C26.0449 1.28415 27.3246 1.91751 28.4324 2.78831C30.5687 4.46776 32.6604 6.20579 34.7312 7.9658C36.0296 9.06932 37.2619 10.2512 38.5132 11.4095C39.3769 12.209 40.0639 13.1249 40.3009 14.3146C40.3623 14.6229 40.4332 14.9293 40.4997 15.2366C40.4997 15.5231 40.4997 15.8095 40.4997 16.096C40.4735 16.1776 40.4253 16.259 40.4247 16.3406C40.4195 17.1404 40.4201 17.94 40.4263 18.7397C40.4269 18.8224 40.4742 18.9044 40.4999 18.9867C40.4999 19.0909 40.4999 19.1951 40.4999 19.2993C40.4999 19.5598 40.4999 19.8201 40.4999 20.0806C40.4999 20.8096 40.4999 21.5388 40.4999 22.2679ZM32.785 20.3015C30.7927 20.3136 29.1408 21.9606 29.1771 23.9375C29.2145 25.981 30.7855 27.5354 32.8147 27.5454C34.803 27.5553 36.4449 25.8697 36.4308 23.908C36.4168 21.9232 34.7652 20.2896 32.785 20.3015Z" fill="#71DE71"/>
<path fill-rule="evenodd" clip-rule="evenodd" d="M0.5 8.75232C0.78923 8.30023 1.20714 8.19216 1.72839 8.19412C6.06121 8.20966 10.394 8.20263 14.7268 8.2039C14.8823 8.2039 15.0415 8.20137 15.1926 8.23164C15.5805 8.30967 15.8644 8.65898 15.8635 9.03177C15.8625 9.42366 15.5578 9.77504 15.1498 9.83581C14.9965 9.8586 14.8384 9.85262 14.6825 9.85262C10.3497 9.85342 6.0169 9.84652 1.68408 9.86217C1.17123 9.86401 0.774383 9.74098 0.5 9.29925C0.5 9.11694 0.5 8.93463 0.5 8.75232Z" fill="#71DE71"/>
<path fill-rule="evenodd" clip-rule="evenodd" d="M40.4995 18.9868C40.4739 18.9045 40.4266 18.8224 40.426 18.7398C40.4199 17.9402 40.4192 17.1404 40.4244 16.3406C40.4249 16.259 40.4733 16.1777 40.4994 16.0961C40.4995 17.0596 40.4995 18.0232 40.4995 18.9868Z" fill="#71DE71"/>
<path fill-rule="evenodd" clip-rule="evenodd" d="M16.0867 24.7574C15.6895 26.6751 14.6432 28.0514 12.8608 28.8077C9.8156 30.1001 6.27175 28.1809 5.66981 24.9249C5.62746 24.696 5.53389 24.6016 5.32741 24.5269C3.83913 23.9876 3.15375 23.0027 3.15329 21.4294C3.15317 20.7657 3.14811 20.1018 3.1549 19.4382C3.16077 18.8637 3.48338 18.5015 3.97471 18.4982C4.47111 18.4947 4.79648 18.8507 4.80258 19.4262C4.80995 20.1288 4.81973 20.8322 4.79993 21.5344C4.78198 22.1718 5.0719 22.5944 5.65439 22.8886C6.02752 21.3226 6.89337 20.1199 8.27254 19.3136C9.25797 18.7375 10.3346 18.5658 11.4666 18.6704C13.6947 18.8762 15.4034 20.4877 16.1016 23.0958C16.2269 23.0958 16.3658 23.0958 16.5047 23.0958C19.1987 23.0958 21.8928 23.0953 24.5868 23.0973C24.7683 23.0975 24.9532 23.1004 25.1305 23.1336C25.4854 23.2 25.738 23.5158 25.754 23.8812C25.7702 24.2488 25.5511 24.5929 25.2068 24.6876C25.0221 24.7383 24.8228 24.7543 24.6299 24.7547C21.9359 24.7588 19.2419 24.7573 16.5478 24.7573C16.4054 24.7574 16.2628 24.7574 16.0867 24.7574ZM10.8443 20.3008C8.85722 20.309 7.20505 21.9655 7.2222 23.9323C7.23946 25.9122 8.90774 27.5722 10.8626 27.5548C12.8445 27.5372 14.4892 25.8826 14.482 23.9137C14.4746 21.9282 12.8275 20.2924 10.8443 20.3008Z" fill="#71DE71"/>
<path fill-rule="evenodd" clip-rule="evenodd" d="M8.75869 13.2202C7.8102 13.2196 6.86171 13.2196 5.91311 13.2196C5.55528 13.2196 5.27952 13.0658 5.1246 12.746C4.98407 12.4557 4.98994 12.1294 5.22681 11.9135C5.41222 11.7443 5.69132 11.5862 5.93107 11.5827C7.8148 11.5559 9.69912 11.5611 11.5831 11.5717C12.124 11.5748 12.4708 11.9278 12.4661 12.4072C12.4614 12.8903 12.1186 13.2122 11.5652 13.2181C10.6299 13.2279 9.69428 13.2206 8.75869 13.2202Z" fill="#71DE71"/>
<path fill-rule="evenodd" clip-rule="evenodd" d="M10.8271 16.5921C10.3201 16.5922 9.81297 16.6001 9.30621 16.59C8.71935 16.5783 8.37211 16.268 8.3682 15.7729C8.36428 15.2846 8.72268 14.9428 9.2924 14.9361C10.3191 14.924 11.3462 14.9236 12.373 14.9362C12.9311 14.9431 13.3099 15.305 13.3005 15.7774C13.2912 16.2444 12.9315 16.5752 12.3869 16.5891C11.8673 16.6023 11.3471 16.592 10.8271 16.5921Z" fill="#71DE71"/>
<path fill-rule="evenodd" clip-rule="evenodd" d="M3.14897 16.5763C2.7992 16.5763 2.44782 16.598 2.10012 16.5709C1.66932 16.5374 1.37848 16.2206 1.35592 15.814C1.33314 15.405 1.58381 15.0143 2.00943 14.9883C2.78101 14.9412 3.5602 14.9415 4.33133 14.9938C4.75752 15.0227 4.99093 15.4132 4.95905 15.8355C4.92924 16.2302 4.65221 16.5349 4.23683 16.568C3.87648 16.5968 3.51197 16.574 3.1492 16.574C3.14897 16.5748 3.14897 16.5756 3.14897 16.5763Z" fill="#71DE71"/>
<path fill-rule="evenodd" clip-rule="evenodd" d="M32.8151 23.1057C33.2591 23.1132 33.6278 23.4879 33.6236 23.9277C33.6196 24.3575 33.2309 24.7481 32.8043 24.7513C32.3572 24.7545 31.9675 24.3501 31.9808 23.8965C31.994 23.4486 32.3641 23.098 32.8151 23.1057Z" fill="#71DE71"/>
<path fill-rule="evenodd" clip-rule="evenodd" d="M10.8618 23.1054C11.3087 23.11 11.6746 23.4773 11.6742 23.9209C11.6739 24.3565 11.2963 24.7429 10.8636 24.7504C10.4236 24.7581 10.0201 24.3474 10.0315 23.903C10.0426 23.4585 10.4151 23.1008 10.8618 23.1054Z" fill="#71DE71"/>
</g>
<defs>
<clipPath id="clip0_73_9129">
<rect width="40" height="28.4295" fill="white" transform="translate(0.5 0.785278)"/>
</clipPath>
</defs>
</svg>
