<svg width="41" height="40" viewBox="0 0 41 40" fill="none" xmlns="http://www.w3.org/2000/svg">
<g clip-path="url(#clip0_73_8975)">
<path fill-rule="evenodd" clip-rule="evenodd" d="M0.500104 33.8196C0.547298 33.7209 0.611993 33.6267 0.639184 33.5228C1.19811 31.386 2.87196 29.9912 5.08078 29.8257C5.10505 29.8239 5.1285 29.8123 5.2009 29.7909C5.2009 29.654 5.2009 29.5027 5.2009 29.3516C5.2009 22.8162 5.2008 16.2807 5.201 9.7453C5.201 8.26793 5.78399 7.47043 7.19823 6.99995C7.94895 6.75024 8.69686 6.49229 9.47893 6.22684C9.47893 5.12472 9.47685 4.02229 9.48081 2.91986C9.48154 2.71286 9.47873 2.4995 9.52436 2.29968C9.73553 1.37529 10.5682 0.803138 11.5372 0.898983C12.4958 0.993891 13.1912 1.74503 13.2119 2.73515C13.227 3.46191 13.2148 4.18908 13.2148 4.96783C14.0311 4.69779 14.8053 4.44557 15.5769 4.18564C18.0113 3.36554 20.4462 2.54742 22.8764 1.71534C23.2469 1.58844 23.5179 1.66533 23.7896 1.92963C25.5347 3.62672 27.2852 5.31829 29.0388 7.00673C29.614 7.56055 29.8954 8.22 29.8913 9.02417C29.8794 11.3024 29.8871 13.5807 29.887 15.859C29.887 15.9111 29.8888 15.9632 29.8864 16.0151C29.8689 16.3925 29.659 16.6256 29.328 16.637C28.9807 16.6488 28.736 16.4111 28.7169 16.0216C28.7035 15.7489 28.7135 15.4749 28.7135 15.2015C28.7135 13.1576 28.7056 11.1136 28.719 9.06969C28.7223 8.56557 28.5598 8.16937 28.1973 7.82245C26.7608 6.4477 25.3345 5.06232 23.8614 3.63943C23.8614 8.52306 23.8614 13.3524 23.8614 18.2371C24.0063 18.2371 24.1562 18.2371 24.3061 18.2371C27.4696 18.2371 30.6332 18.2368 33.7969 18.2374C35.2282 18.2376 35.9634 18.9698 35.9636 20.3943C35.964 23.3886 35.9637 26.3829 35.9637 29.3773C35.9637 29.5174 35.9637 29.6573 35.9637 29.802C36.4187 29.8242 36.8531 29.7957 37.2672 29.8744C38.9224 30.1888 39.9587 31.1891 40.4075 32.8078C40.4294 32.8871 40.4687 32.9616 40.5 33.0383C40.5 34.705 40.5 36.3718 40.5 38.0383C40.0944 38.9159 39.3765 39.1129 38.4643 39.1116C27.0348 39.0928 15.6053 39.0994 4.17577 39.0994C3.47277 39.0994 2.76987 39.0994 2.06686 39.099C1.6341 39.0988 1.23468 38.9911 0.937763 38.662C0.768888 38.4748 0.644497 38.2476 0.5 38.0384C0.500104 36.6321 0.500104 35.2259 0.500104 33.8196ZM22.6571 3.05925C22.52 3.09311 22.4442 3.10624 22.372 3.13062C17.3915 4.80437 12.411 6.47791 7.43149 8.15489C6.65785 8.41555 6.37448 8.83206 6.37448 9.67925C6.37386 18.9628 6.37417 28.2466 6.37417 37.5302C6.37417 37.6535 6.37417 37.7766 6.37417 37.8991C7.44087 37.8991 8.44829 37.8991 9.47925 37.8991C9.47925 36.4817 9.47768 35.0901 9.47977 33.6986C9.48112 32.8071 9.8419 32.3361 10.7087 32.0934C12.3962 31.6212 14.097 31.1913 15.7677 30.6657C16.7769 30.3482 17.634 31.0061 17.6102 32.0507C17.5689 33.8597 17.5987 35.6702 17.5987 37.48C17.5987 37.62 17.5987 37.7601 17.5987 37.9034C19.2989 37.9034 20.9596 37.9034 22.6386 37.9034C22.6386 33.3841 22.6386 28.8867 22.6386 24.3537C22.4793 24.4028 22.3456 24.4407 22.2141 24.485C19.8778 25.2707 17.5421 26.0582 15.2056 26.8429C14.7474 26.9967 14.429 26.8743 14.3101 26.5104C14.1918 26.1486 14.3715 25.8828 14.8494 25.7203C15.2669 25.5784 15.6863 25.4414 16.1042 25.3009C18.1826 24.601 20.2616 23.9031 22.3371 23.1945C22.4589 23.153 22.6408 23.0266 22.6431 22.936C22.6658 22.0159 22.6569 21.0951 22.6569 20.1401C22.5107 20.1799 22.3999 20.2039 22.2931 20.2397C18.9474 21.3631 15.6021 22.4875 12.2569 23.6123C11.605 23.8315 10.9557 24.0582 10.3016 24.2707C10.0358 24.357 9.7422 24.3423 9.61208 24.0769C9.52321 23.8955 9.50644 23.6127 9.58759 23.4346C9.65698 23.2822 9.89909 23.1773 10.0861 23.1141C13.8839 21.8297 17.6848 20.5551 21.4844 19.2764C21.8651 19.1483 22.3939 19.1125 22.5784 18.8444C22.7752 18.5582 22.6512 18.0472 22.6558 17.6341C22.662 17.0701 22.6574 16.506 22.6574 15.912C22.5472 15.9448 22.4989 15.9577 22.4516 15.9737C19.3517 17.0141 16.2518 18.0547 13.1521 19.0957C12.2171 19.4097 11.2878 19.7429 10.3436 20.0261C10.1416 20.0867 9.8444 20.03 9.66917 19.9117C9.54405 19.8271 9.45122 19.4961 9.51946 19.3697C9.62749 19.1693 9.85867 18.979 10.0786 18.9038C13.1727 17.8467 16.2738 16.8099 19.3731 15.7677C20.4656 15.4003 21.5575 15.0311 22.6326 14.6683C22.6326 13.6654 22.6326 12.6971 22.6326 11.7053C22.4938 11.7451 22.3822 11.7724 22.2737 11.8088C19.2363 12.8303 16.1993 13.8526 13.1621 14.8749C12.2274 15.1895 11.2985 15.5238 10.3535 15.8036C10.1435 15.8658 9.82929 15.8012 9.65219 15.6722C9.52936 15.5828 9.47206 15.2428 9.54384 15.0883C9.62677 14.9097 9.8645 14.7561 10.0675 14.687C12.7815 13.7615 15.5015 12.8535 18.2194 11.9397C19.6949 11.4436 21.1695 10.9449 22.6377 10.4497C22.6377 9.45578 22.6377 8.48556 22.6377 7.48866C22.5654 7.50783 22.5174 7.51752 22.4714 7.53294C19.8392 8.41711 17.2073 9.30201 14.5751 10.1862C13.1727 10.6573 11.7708 11.13 10.3668 11.5959C9.89753 11.7516 9.51613 11.5498 9.48498 11.1376C9.45435 10.732 9.71876 10.5732 10.0545 10.4613C11.9995 9.8126 13.9425 9.15845 15.8859 8.50483C18.0385 7.78078 20.1916 7.05767 22.3411 6.32435C22.462 6.28309 22.6415 6.15474 22.6436 6.06359C22.6654 5.07721 22.6571 4.09032 22.6571 3.05925ZM23.8494 34.2615C26.7257 34.2615 29.5831 34.2615 32.4659 34.2615C32.4659 34.1262 32.4665 34.0112 32.4659 33.8962C32.4566 32.2557 33.137 31.0107 34.5995 30.2345C34.8227 30.116 34.7902 29.9595 34.7903 29.7853C34.7911 26.6603 34.791 23.5354 34.7907 20.4104C34.7907 19.6254 34.5791 19.4115 33.7989 19.4114C30.6088 19.4108 27.4187 19.4109 24.2286 19.4119C24.1037 19.4119 23.9789 19.4231 23.8495 19.4294C23.8494 24.3916 23.8494 29.3202 23.8494 34.2615ZM32.4484 35.481C29.571 35.481 26.7055 35.481 23.8464 35.481C23.8464 36.2993 23.8464 37.091 23.8464 37.9041C26.7185 37.9041 29.5746 37.9041 32.4484 37.9041C32.4484 37.0903 32.4484 36.2902 32.4484 35.481ZM39.3089 34.2739C39.4292 33.0058 39.0884 31.9498 37.9472 31.3413C36.8578 30.7604 35.7311 30.8074 34.7129 31.5519C33.7973 32.2211 33.5474 33.1783 33.6645 34.274C35.5543 34.2739 37.4125 34.2739 39.3089 34.2739ZM33.6554 37.9261C34.2332 37.9261 34.7897 37.9261 35.3461 37.9261C36.5167 37.9261 37.6874 37.9258 38.8578 37.9263C39.0765 37.9264 39.3135 37.9123 39.3202 37.6321C39.3376 36.9097 39.326 36.1867 39.326 35.4727C37.4092 35.4727 35.5408 35.4727 33.6554 35.4727C33.6554 36.2802 33.6554 37.0697 33.6554 37.9261ZM14.1295 32.3509C14.1295 34.2222 14.1295 36.0507 14.1295 37.8946C14.9014 37.8946 15.6567 37.8946 16.39 37.8946C16.39 35.8317 16.39 33.801 16.39 31.7246C15.6115 31.9404 14.8788 32.1433 14.1295 32.3509ZM12.9241 32.6895C12.2259 32.8858 11.5499 33.0611 10.8871 33.2768C10.779 33.312 10.6686 33.5224 10.6625 33.6566C10.6374 34.2145 10.6519 34.7744 10.6519 35.3334C10.6519 36.1889 10.6519 37.0445 10.6519 37.8966C11.4314 37.8966 12.1755 37.8966 12.9241 37.8966C12.9241 36.156 12.9241 34.4439 12.9241 32.6895ZM5.17986 37.9247C5.17986 37.0742 5.17986 36.2757 5.17986 35.4823C3.99908 35.4823 2.84008 35.4823 1.67223 35.4823C1.67223 36.1846 1.67598 36.8593 1.67035 37.5337C1.66817 37.7941 1.78933 37.9231 2.0428 37.9236C3.07949 37.926 4.11618 37.9247 5.17986 37.9247ZM5.18277 31.0237C3.47652 30.9567 1.62493 32.7162 1.75109 34.2626C2.89176 34.2626 4.03211 34.2626 5.18277 34.2626C5.18277 33.1699 5.18277 32.0963 5.18277 31.0237ZM12.0425 5.36923C12.0425 4.50464 12.0426 3.66172 12.0421 2.81891C12.0421 2.76713 12.041 2.71463 12.0325 2.66389C11.9687 2.28416 11.6723 2.04423 11.2945 2.06382C10.8995 2.08434 10.6568 2.32916 10.654 2.74328C10.6472 3.75455 10.6518 4.76582 10.6518 5.83106C11.1348 5.67062 11.5844 5.52144 12.0425 5.36923Z" fill="#194185"/>
<path fill-rule="evenodd" clip-rule="evenodd" d="M10.2198 28.522C9.78766 28.5327 9.5794 28.3865 9.5022 28.1079C9.42042 27.8123 9.51939 27.5371 9.81276 27.4294C10.5793 27.1485 11.353 26.8837 12.1349 26.6499C12.4267 26.5626 12.6658 26.7254 12.7793 27.0213C12.8885 27.3059 12.8086 27.5915 12.5525 27.6927C11.7465 28.0119 10.9195 28.2775 10.2198 28.522Z" fill="#194185"/>
<path fill-rule="evenodd" clip-rule="evenodd" d="M29.2499 24.2363C28.3516 24.2364 27.4532 24.241 26.555 24.235C25.7704 24.2297 25.4152 23.8687 25.4106 23.0865C25.4082 22.6829 25.4035 22.2792 25.4127 21.8758C25.4262 21.2694 25.8109 20.8591 26.4102 20.8558C28.3109 20.8453 30.2117 20.8463 32.1123 20.8555C32.682 20.8582 33.0781 21.2224 33.1166 21.7901C33.1501 22.2824 33.15 22.7801 33.1203 23.2728C33.0835 23.884 32.6995 24.2252 32.0619 24.2331C31.1247 24.2448 30.1873 24.2361 29.2499 24.2363ZM31.9414 22.041C30.1387 22.041 28.374 22.041 26.6069 22.041C26.6069 22.3892 26.6069 22.719 26.6069 23.0433C28.3952 23.0433 30.1592 23.0433 31.9414 23.0433C31.9414 22.7035 31.9414 22.3842 31.9414 22.041Z" fill="#194185"/>
<path fill-rule="evenodd" clip-rule="evenodd" d="M29.2607 28.6896C28.3884 28.6897 27.5161 28.6908 26.6439 28.6894C25.7452 28.6881 25.4121 28.3597 25.4102 27.4746C25.4094 27.0839 25.4022 26.6931 25.4136 26.3029C25.4304 25.7211 25.8172 25.3152 26.3991 25.3117C28.3129 25.3009 30.2267 25.3008 32.1403 25.312C32.6981 25.3153 33.0871 25.7005 33.1211 26.2734C33.1495 26.7534 33.1502 27.2377 33.1225 27.7175C33.087 28.3305 32.7021 28.6795 32.0727 28.6867C31.1355 28.6972 30.198 28.6894 29.2607 28.6896ZM31.9408 26.4968C30.1384 26.4968 28.3749 26.4968 26.6073 26.4968C26.6073 26.8446 26.6073 27.1738 26.6073 27.4974C28.3955 27.4974 30.1587 27.4974 31.9408 27.4974C31.9408 27.159 31.9408 26.8401 31.9408 26.4968Z" fill="#194185"/>
<path fill-rule="evenodd" clip-rule="evenodd" d="M27.3671 29.8191C27.6795 29.8191 27.9923 29.8083 28.3043 29.8215C28.8612 29.8452 29.2407 30.2003 29.2643 30.7475C29.286 31.2541 29.2867 31.7632 29.2628 32.2696C29.2373 32.8096 28.8417 33.1796 28.2941 33.1908C27.6565 33.2037 27.0181 33.205 26.3805 33.1903C25.8247 33.1775 25.4315 32.7789 25.4156 32.2208C25.4019 31.7395 25.4016 31.2571 25.4161 30.7759C25.4325 30.2291 25.8059 29.8508 26.3517 29.8237C26.6894 29.807 27.0286 29.8207 27.367 29.8207C27.3671 29.8202 27.3671 29.8197 27.3671 29.8191ZM28.0841 32.0102C28.0841 31.6568 28.0841 31.3377 28.0841 31.0075C27.5805 31.0075 27.0962 31.0075 26.6085 31.0075C26.6085 31.3539 26.6085 31.6806 26.6085 32.0102C27.1096 32.0102 27.5853 32.0102 28.0841 32.0102Z" fill="#194185"/>
</g>
<defs>
<clipPath id="clip0_73_8975">
<rect width="40" height="38.223" fill="white" transform="translate(0.5 0.88855)"/>
</clipPath>
</defs>
</svg>
